<mxfile host="Electron" modified="2025-09-18T20:45:01.023Z" agent="Mozilla/5.0 (Windows NT 10.0; Win64; x64) AppleWebKit/537.36 (KHTML, like Gecko) draw.io/24.1.0 Chrome/120.0.6099.109 Electron/28.1.0 Safari/537.36" etag="c8OVmeit30IrvBvkIF-v" version="24.1.0" type="device">
  <diagram name="Page-1" id="58cdce13-f638-feb5-8d6f-7d28b1aa9fa0">
    <mxGraphModel dx="1434" dy="836" grid="1" gridSize="10" guides="1" tooltips="1" connect="1" arrows="1" fold="1" page="1" pageScale="1" pageWidth="1169" pageHeight="827" background="none" math="0" shadow="0">
      <root>
        <mxCell id="0" />
        <mxCell id="1" parent="0" />
        <mxCell id="YjNhqu2CfmliH0PkFurq-52" value="" style="whiteSpace=wrap;html=1;" parent="1" vertex="1">
          <mxGeometry x="919" y="720" width="250" height="107" as="geometry" />
        </mxCell>
        <mxCell id="YjNhqu2CfmliH0PkFurq-3" value="" style="edgeStyle=orthogonalEdgeStyle;rounded=0;orthogonalLoop=1;jettySize=auto;html=1;fillColor=#1ba1e2;strokeColor=#006EAF;strokeWidth=2;" parent="1" source="YjNhqu2CfmliH0PkFurq-1" target="YjNhqu2CfmliH0PkFurq-2" edge="1">
          <mxGeometry relative="1" as="geometry" />
        </mxCell>
        <mxCell id="YjNhqu2CfmliH0PkFurq-24" value="[isInMainMenu]" style="edgeLabel;html=1;align=center;verticalAlign=middle;resizable=0;points=[];" parent="YjNhqu2CfmliH0PkFurq-3" vertex="1" connectable="0">
          <mxGeometry relative="1" as="geometry">
            <mxPoint y="-10" as="offset" />
          </mxGeometry>
        </mxCell>
        <mxCell id="YjNhqu2CfmliH0PkFurq-16" style="edgeStyle=orthogonalEdgeStyle;rounded=0;orthogonalLoop=1;jettySize=auto;html=1;fillColor=#008a00;strokeColor=#005700;endSize=6;strokeWidth=2;" parent="1" source="YjNhqu2CfmliH0PkFurq-1" target="YjNhqu2CfmliH0PkFurq-13" edge="1">
          <mxGeometry relative="1" as="geometry">
            <mxPoint x="80" y="390" as="targetPoint" />
            <Array as="points">
              <mxPoint x="90" y="260" />
              <mxPoint x="90" y="260" />
            </Array>
          </mxGeometry>
        </mxCell>
        <mxCell id="YjNhqu2CfmliH0PkFurq-42" value="[serverStarted]" style="edgeLabel;html=1;align=center;verticalAlign=middle;resizable=0;points=[];rotation=-90;" parent="YjNhqu2CfmliH0PkFurq-16" vertex="1" connectable="0">
          <mxGeometry x="0.1761" y="-3" relative="1" as="geometry">
            <mxPoint x="-7" y="-107" as="offset" />
          </mxGeometry>
        </mxCell>
        <mxCell id="YjNhqu2CfmliH0PkFurq-1" value="INACTIVE" style="rounded=1;whiteSpace=wrap;html=1;" parent="1" vertex="1">
          <mxGeometry x="40" y="60" width="120" height="60" as="geometry" />
        </mxCell>
        <mxCell id="YjNhqu2CfmliH0PkFurq-5" value="" style="edgeStyle=orthogonalEdgeStyle;rounded=0;orthogonalLoop=1;jettySize=auto;html=1;fillColor=#1ba1e2;strokeColor=#006EAF;strokeWidth=2;" parent="1" source="YjNhqu2CfmliH0PkFurq-2" target="YjNhqu2CfmliH0PkFurq-4" edge="1">
          <mxGeometry relative="1" as="geometry" />
        </mxCell>
        <mxCell id="YjNhqu2CfmliH0PkFurq-27" value="[gotServerInfoForNAT]" style="edgeLabel;html=1;align=center;verticalAlign=middle;resizable=0;points=[];" parent="YjNhqu2CfmliH0PkFurq-5" vertex="1" connectable="0">
          <mxGeometry relative="1" as="geometry">
            <mxPoint y="-9" as="offset" />
          </mxGeometry>
        </mxCell>
        <mxCell id="YjNhqu2CfmliH0PkFurq-15" style="edgeStyle=orthogonalEdgeStyle;rounded=0;orthogonalLoop=1;jettySize=auto;html=1;fillColor=#1ba1e2;strokeColor=#006EAF;strokeWidth=2;" parent="1" source="YjNhqu2CfmliH0PkFurq-2" target="YjNhqu2CfmliH0PkFurq-6" edge="1">
          <mxGeometry relative="1" as="geometry">
            <Array as="points">
              <mxPoint x="420" y="140" />
              <mxPoint x="1040" y="140" />
            </Array>
          </mxGeometry>
        </mxCell>
        <mxCell id="YjNhqu2CfmliH0PkFurq-30" value="[gotNoServerInfoForNAT]" style="edgeLabel;html=1;align=center;verticalAlign=middle;resizable=0;points=[];" parent="YjNhqu2CfmliH0PkFurq-15" vertex="1" connectable="0">
          <mxGeometry x="-0.5939" y="1" relative="1" as="geometry">
            <mxPoint x="46" y="-9" as="offset" />
          </mxGeometry>
        </mxCell>
        <mxCell id="YjNhqu2CfmliH0PkFurq-2" value="&lt;font style=&quot;font-size: 11px;&quot;&gt;GET_SERVER_INFO&lt;/font&gt;" style="whiteSpace=wrap;html=1;rounded=1;" parent="1" vertex="1">
          <mxGeometry x="360" y="60" width="120" height="60" as="geometry" />
        </mxCell>
        <mxCell id="YjNhqu2CfmliH0PkFurq-7" value="" style="edgeStyle=orthogonalEdgeStyle;rounded=0;orthogonalLoop=1;jettySize=auto;html=1;fillColor=#1ba1e2;strokeColor=#006EAF;strokeWidth=2;" parent="1" source="YjNhqu2CfmliH0PkFurq-4" target="YjNhqu2CfmliH0PkFurq-6" edge="1">
          <mxGeometry relative="1" as="geometry" />
        </mxCell>
        <mxCell id="YjNhqu2CfmliH0PkFurq-29" value="[connectionNotEstablished]" style="edgeLabel;html=1;align=center;verticalAlign=middle;resizable=0;points=[];" parent="YjNhqu2CfmliH0PkFurq-7" vertex="1" connectable="0">
          <mxGeometry x="0.11" y="1" relative="1" as="geometry">
            <mxPoint x="-5" y="-8" as="offset" />
          </mxGeometry>
        </mxCell>
        <mxCell id="YjNhqu2CfmliH0PkFurq-10" style="edgeStyle=orthogonalEdgeStyle;rounded=0;orthogonalLoop=1;jettySize=auto;html=1;fillColor=#1ba1e2;strokeColor=#006EAF;strokeWidth=2;entryX=1;entryY=0.5;entryDx=0;entryDy=0;" parent="1" source="YjNhqu2CfmliH0PkFurq-4" target="IL9H_qzRFQKTHQHTOQit-1" edge="1">
          <mxGeometry relative="1" as="geometry">
            <Array as="points">
              <mxPoint x="740" y="40" />
              <mxPoint x="1140" y="40" />
              <mxPoint x="1140" y="300" />
            </Array>
          </mxGeometry>
        </mxCell>
        <mxCell id="YjNhqu2CfmliH0PkFurq-28" value="[connectionEstablished]" style="edgeLabel;html=1;align=center;verticalAlign=middle;resizable=0;points=[];" parent="YjNhqu2CfmliH0PkFurq-10" vertex="1" connectable="0">
          <mxGeometry x="-0.6403" y="1" relative="1" as="geometry">
            <mxPoint x="27" y="-9" as="offset" />
          </mxGeometry>
        </mxCell>
        <mxCell id="YjNhqu2CfmliH0PkFurq-4" value="NAT_CONNECT" style="whiteSpace=wrap;html=1;rounded=1;" parent="1" vertex="1">
          <mxGeometry x="680" y="60" width="120" height="60" as="geometry" />
        </mxCell>
        <mxCell id="YjNhqu2CfmliH0PkFurq-9" value="" style="edgeStyle=orthogonalEdgeStyle;rounded=0;orthogonalLoop=1;jettySize=auto;html=1;fillColor=#1ba1e2;strokeColor=#006EAF;strokeWidth=2;" parent="1" source="YjNhqu2CfmliH0PkFurq-6" target="IL9H_qzRFQKTHQHTOQit-1" edge="1">
          <mxGeometry relative="1" as="geometry">
            <Array as="points">
              <mxPoint x="1080" y="190" />
              <mxPoint x="1070" y="190" />
            </Array>
            <mxPoint x="1070" y="240" as="targetPoint" />
          </mxGeometry>
        </mxCell>
        <mxCell id="YjNhqu2CfmliH0PkFurq-31" value="[connectionEstablished]" style="edgeLabel;html=1;align=center;verticalAlign=middle;resizable=0;points=[];rotation=90;" parent="YjNhqu2CfmliH0PkFurq-9" vertex="1" connectable="0">
          <mxGeometry x="-0.662" y="-3" relative="1" as="geometry">
            <mxPoint x="13" y="50" as="offset" />
          </mxGeometry>
        </mxCell>
        <mxCell id="YjNhqu2CfmliH0PkFurq-32" style="edgeStyle=orthogonalEdgeStyle;rounded=0;orthogonalLoop=1;jettySize=auto;html=1;fillColor=#1ba1e2;strokeColor=#006EAF;strokeWidth=2;" parent="1" source="YjNhqu2CfmliH0PkFurq-6" target="YjNhqu2CfmliH0PkFurq-1" edge="1">
          <mxGeometry relative="1" as="geometry">
            <mxPoint x="1040" y="260" as="targetPoint" />
            <Array as="points">
              <mxPoint x="1060" y="180" />
              <mxPoint x="140" y="180" />
            </Array>
          </mxGeometry>
        </mxCell>
        <mxCell id="YjNhqu2CfmliH0PkFurq-33" value="[connectionNotEstablished]" style="edgeLabel;html=1;align=center;verticalAlign=middle;resizable=0;points=[];" parent="YjNhqu2CfmliH0PkFurq-32" vertex="1" connectable="0">
          <mxGeometry x="-0.8231" y="1" relative="1" as="geometry">
            <mxPoint x="-58" y="-11" as="offset" />
          </mxGeometry>
        </mxCell>
        <mxCell id="YjNhqu2CfmliH0PkFurq-6" value="DIRECT_CONNECT" style="whiteSpace=wrap;html=1;rounded=1;" parent="1" vertex="1">
          <mxGeometry x="1000" y="60" width="120" height="60" as="geometry" />
        </mxCell>
        <mxCell id="YjNhqu2CfmliH0PkFurq-12" value="" style="edgeStyle=orthogonalEdgeStyle;rounded=0;orthogonalLoop=1;jettySize=auto;html=1;fillColor=#1ba1e2;strokeColor=#006EAF;strokeWidth=2;" parent="1" source="YjNhqu2CfmliH0PkFurq-8" target="YjNhqu2CfmliH0PkFurq-11" edge="1">
          <mxGeometry relative="1" as="geometry" />
        </mxCell>
        <mxCell id="YjNhqu2CfmliH0PkFurq-34" value="[downloadSuccessful]" style="edgeLabel;html=1;align=center;verticalAlign=middle;resizable=0;points=[];" parent="YjNhqu2CfmliH0PkFurq-12" vertex="1" connectable="0">
          <mxGeometry x="-0.5499" y="2" relative="1" as="geometry">
            <mxPoint x="-50" y="-12" as="offset" />
          </mxGeometry>
        </mxCell>
        <mxCell id="YjNhqu2CfmliH0PkFurq-35" style="edgeStyle=orthogonalEdgeStyle;rounded=0;orthogonalLoop=1;jettySize=auto;html=1;fillColor=#1ba1e2;strokeColor=#006EAF;strokeWidth=2;" parent="1" source="YjNhqu2CfmliH0PkFurq-8" target="YjNhqu2CfmliH0PkFurq-1" edge="1">
          <mxGeometry relative="1" as="geometry">
            <Array as="points">
              <mxPoint x="720" y="320" />
              <mxPoint x="140" y="320" />
            </Array>
          </mxGeometry>
        </mxCell>
        <mxCell id="YjNhqu2CfmliH0PkFurq-36" value="[downloadFailed]" style="edgeLabel;html=1;align=center;verticalAlign=middle;resizable=0;points=[];" parent="YjNhqu2CfmliH0PkFurq-35" vertex="1" connectable="0">
          <mxGeometry x="-0.6578" y="1" relative="1" as="geometry">
            <mxPoint x="24" y="-11" as="offset" />
          </mxGeometry>
        </mxCell>
        <mxCell id="YjNhqu2CfmliH0PkFurq-8" value="&lt;font style=&quot;font-size: 11px;&quot;&gt;DOWNLOADING_MAP&lt;/font&gt;" style="whiteSpace=wrap;html=1;rounded=1;" parent="1" vertex="1">
          <mxGeometry x="680" y="404" width="120" height="60" as="geometry" />
        </mxCell>
        <mxCell id="YjNhqu2CfmliH0PkFurq-14" value="" style="edgeStyle=orthogonalEdgeStyle;rounded=0;orthogonalLoop=1;jettySize=auto;html=1;fillColor=#1ba1e2;strokeColor=#006EAF;strokeWidth=2;" parent="1" source="YjNhqu2CfmliH0PkFurq-11" target="YjNhqu2CfmliH0PkFurq-13" edge="1">
          <mxGeometry relative="1" as="geometry" />
        </mxCell>
        <mxCell id="YjNhqu2CfmliH0PkFurq-37" value="[loadingMapSuccessful]" style="edgeLabel;html=1;align=center;verticalAlign=middle;resizable=0;points=[];" parent="YjNhqu2CfmliH0PkFurq-14" vertex="1" connectable="0">
          <mxGeometry x="-0.7119" relative="1" as="geometry">
            <mxPoint x="-51" y="-9" as="offset" />
          </mxGeometry>
        </mxCell>
        <mxCell id="YjNhqu2CfmliH0PkFurq-38" style="edgeStyle=orthogonalEdgeStyle;rounded=0;orthogonalLoop=1;jettySize=auto;html=1;fillColor=#1ba1e2;strokeColor=#006EAF;strokeWidth=2;" parent="1" source="YjNhqu2CfmliH0PkFurq-11" target="YjNhqu2CfmliH0PkFurq-1" edge="1">
          <mxGeometry relative="1" as="geometry">
            <Array as="points">
              <mxPoint x="400" y="360" />
              <mxPoint x="140" y="360" />
            </Array>
          </mxGeometry>
        </mxCell>
        <mxCell id="YjNhqu2CfmliH0PkFurq-39" value="[loadingMapFailed]" style="edgeLabel;html=1;align=center;verticalAlign=middle;resizable=0;points=[];" parent="YjNhqu2CfmliH0PkFurq-38" vertex="1" connectable="0">
          <mxGeometry x="-0.4605" y="5" relative="1" as="geometry">
            <mxPoint x="-21" y="-15" as="offset" />
          </mxGeometry>
        </mxCell>
        <mxCell id="YjNhqu2CfmliH0PkFurq-11" value="LOADING_MAP" style="whiteSpace=wrap;html=1;rounded=1;" parent="1" vertex="1">
          <mxGeometry x="360" y="404" width="120" height="60" as="geometry" />
        </mxCell>
        <mxCell id="YjNhqu2CfmliH0PkFurq-18" style="edgeStyle=orthogonalEdgeStyle;rounded=0;orthogonalLoop=1;jettySize=auto;html=1;fillColor=#1ba1e2;strokeColor=#006EAF;strokeWidth=2;" parent="1" source="YjNhqu2CfmliH0PkFurq-13" target="YjNhqu2CfmliH0PkFurq-8" edge="1">
          <mxGeometry relative="1" as="geometry">
            <Array as="points">
              <mxPoint x="130" y="500" />
              <mxPoint x="720" y="500" />
            </Array>
          </mxGeometry>
        </mxCell>
        <mxCell id="YjNhqu2CfmliH0PkFurq-40" value="[resyncTriggered]" style="edgeLabel;html=1;align=center;verticalAlign=middle;resizable=0;points=[];" parent="YjNhqu2CfmliH0PkFurq-18" vertex="1" connectable="0">
          <mxGeometry x="-0.8603" y="-1" relative="1" as="geometry">
            <mxPoint x="42" y="-11" as="offset" />
          </mxGeometry>
        </mxCell>
        <mxCell id="YjNhqu2CfmliH0PkFurq-20" style="edgeStyle=orthogonalEdgeStyle;rounded=0;orthogonalLoop=1;jettySize=auto;html=1;fillColor=#a20025;strokeColor=#6F0000;strokeWidth=2;" parent="1" source="YjNhqu2CfmliH0PkFurq-13" target="YjNhqu2CfmliH0PkFurq-19" edge="1">
          <mxGeometry relative="1" as="geometry">
            <Array as="points">
              <mxPoint x="90" y="570" />
              <mxPoint x="90" y="570" />
            </Array>
          </mxGeometry>
        </mxCell>
        <mxCell id="YjNhqu2CfmliH0PkFurq-43" value="[clientJoining || clientsResyncing]" style="edgeLabel;html=1;align=center;verticalAlign=middle;resizable=0;points=[];rotation=-90;" parent="YjNhqu2CfmliH0PkFurq-20" vertex="1" connectable="0">
          <mxGeometry x="-0.1795" y="4" relative="1" as="geometry">
            <mxPoint x="-14" y="-9" as="offset" />
          </mxGeometry>
        </mxCell>
        <mxCell id="YjNhqu2CfmliH0PkFurq-13" value="PLAYING" style="whiteSpace=wrap;html=1;rounded=1;" parent="1" vertex="1">
          <mxGeometry x="40" y="404" width="120" height="60" as="geometry" />
        </mxCell>
        <mxCell id="YjNhqu2CfmliH0PkFurq-19" value="BLOCKED" style="rounded=1;whiteSpace=wrap;html=1;" parent="1" vertex="1">
          <mxGeometry x="40" y="700" width="120" height="60" as="geometry" />
        </mxCell>
        <mxCell id="YjNhqu2CfmliH0PkFurq-23" style="edgeStyle=orthogonalEdgeStyle;rounded=0;orthogonalLoop=1;jettySize=auto;html=1;fillColor=#a20025;strokeColor=#6F0000;strokeWidth=2;" parent="1" source="YjNhqu2CfmliH0PkFurq-13" target="YjNhqu2CfmliH0PkFurq-1" edge="1">
          <mxGeometry relative="1" as="geometry">
            <mxPoint x="120" y="390" as="sourcePoint" />
            <mxPoint x="150" y="160" as="targetPoint" />
            <Array as="points">
              <mxPoint x="110" y="270" />
              <mxPoint x="110" y="270" />
            </Array>
          </mxGeometry>
        </mxCell>
        <mxCell id="YjNhqu2CfmliH0PkFurq-41" value="[clientDisconnect || serverStopped]" style="edgeLabel;html=1;align=center;verticalAlign=middle;resizable=0;points=[];rotation=90;" parent="YjNhqu2CfmliH0PkFurq-23" vertex="1" connectable="0">
          <mxGeometry x="-0.1901" y="2" relative="1" as="geometry">
            <mxPoint x="12" y="2" as="offset" />
          </mxGeometry>
        </mxCell>
        <mxCell id="YjNhqu2CfmliH0PkFurq-26" style="edgeStyle=orthogonalEdgeStyle;rounded=0;orthogonalLoop=1;jettySize=auto;html=1;fillColor=#a20025;strokeColor=#6F0000;endArrow=none;endFill=0;startArrow=classic;startFill=1;strokeWidth=2;" parent="1" source="YjNhqu2CfmliH0PkFurq-13" target="YjNhqu2CfmliH0PkFurq-19" edge="1">
          <mxGeometry relative="1" as="geometry">
            <mxPoint x="80" y="460" as="sourcePoint" />
            <mxPoint x="80" y="580" as="targetPoint" />
            <Array as="points">
              <mxPoint x="110" y="570" />
              <mxPoint x="110" y="570" />
            </Array>
          </mxGeometry>
        </mxCell>
        <mxCell id="YjNhqu2CfmliH0PkFurq-44" value="[AllClientsFullyConnected]" style="edgeLabel;html=1;align=center;verticalAlign=middle;resizable=0;points=[];rotation=90;" parent="YjNhqu2CfmliH0PkFurq-26" vertex="1" connectable="0">
          <mxGeometry x="-0.1797" y="-4" relative="1" as="geometry">
            <mxPoint x="14" y="61" as="offset" />
          </mxGeometry>
        </mxCell>
        <mxCell id="YjNhqu2CfmliH0PkFurq-45" value="" style="endArrow=none;html=1;rounded=0;fillColor=#1ba1e2;strokeColor=#006EAF;strokeWidth=2;" parent="1" edge="1">
          <mxGeometry width="50" height="50" relative="1" as="geometry">
            <mxPoint x="940" y="760" as="sourcePoint" />
            <mxPoint x="1020" y="760" as="targetPoint" />
          </mxGeometry>
        </mxCell>
        <mxCell id="YjNhqu2CfmliH0PkFurq-48" value="state change of client" style="edgeLabel;html=1;align=left;verticalAlign=middle;resizable=0;points=[];" parent="YjNhqu2CfmliH0PkFurq-45" vertex="1" connectable="0">
          <mxGeometry x="0.675" y="-1" relative="1" as="geometry">
            <mxPoint x="33" as="offset" />
          </mxGeometry>
        </mxCell>
        <mxCell id="YjNhqu2CfmliH0PkFurq-46" value="" style="endArrow=none;html=1;rounded=0;fillColor=#008a00;strokeColor=#005700;strokeWidth=2;" parent="1" edge="1">
          <mxGeometry width="50" height="50" relative="1" as="geometry">
            <mxPoint x="940" y="780" as="sourcePoint" />
            <mxPoint x="1020" y="780" as="targetPoint" />
          </mxGeometry>
        </mxCell>
        <mxCell id="YjNhqu2CfmliH0PkFurq-49" value="state change of server" style="edgeLabel;html=1;align=left;verticalAlign=middle;resizable=0;points=[];" parent="YjNhqu2CfmliH0PkFurq-46" vertex="1" connectable="0">
          <mxGeometry x="0.6" y="-1" relative="1" as="geometry">
            <mxPoint x="36" as="offset" />
          </mxGeometry>
        </mxCell>
        <mxCell id="YjNhqu2CfmliH0PkFurq-47" value="" style="endArrow=none;html=1;rounded=0;fillColor=#a20025;strokeColor=#6F0000;strokeWidth=2;" parent="1" edge="1">
          <mxGeometry width="50" height="50" relative="1" as="geometry">
            <mxPoint x="940" y="800" as="sourcePoint" />
            <mxPoint x="1020" y="800" as="targetPoint" />
          </mxGeometry>
        </mxCell>
        <mxCell id="YjNhqu2CfmliH0PkFurq-51" value="state change of both" style="edgeLabel;html=1;align=left;verticalAlign=middle;resizable=0;points=[];" parent="YjNhqu2CfmliH0PkFurq-47" vertex="1" connectable="0">
          <mxGeometry x="0.575" relative="1" as="geometry">
            <mxPoint x="37" as="offset" />
          </mxGeometry>
        </mxCell>
        <mxCell id="YjNhqu2CfmliH0PkFurq-57" value="legend" style="text;html=1;align=center;verticalAlign=middle;whiteSpace=wrap;rounded=0;" parent="1" vertex="1">
          <mxGeometry x="919" y="720" width="60" height="30" as="geometry" />
        </mxCell>
        <mxCell id="IL9H_qzRFQKTHQHTOQit-4" style="edgeStyle=orthogonalEdgeStyle;rounded=0;orthogonalLoop=1;jettySize=auto;html=1;exitX=0.5;exitY=1;exitDx=0;exitDy=0;entryX=0.5;entryY=0;entryDx=0;entryDy=0;fillColor=#1ba1e2;strokeColor=#006EAF;strokeWidth=2;" parent="1" source="IL9H_qzRFQKTHQHTOQit-1" target="IL9H_qzRFQKTHQHTOQit-2" edge="1">
          <mxGeometry relative="1" as="geometry" />
        </mxCell>
        <mxCell id="IL9H_qzRFQKTHQHTOQit-7" value="[preconditionsMet]" style="edgeLabel;html=1;align=center;verticalAlign=middle;resizable=0;points=[];rotation=90;" parent="IL9H_qzRFQKTHQHTOQit-4" vertex="1" connectable="0">
          <mxGeometry x="0.5135" y="1" relative="1" as="geometry">
            <mxPoint x="9" y="-47" as="offset" />
          </mxGeometry>
        </mxCell>
        <mxCell id="IL9H_qzRFQKTHQHTOQit-1" value="&lt;font style=&quot;font-size: 11px;&quot;&gt;CONNECTION_&lt;/font&gt;&lt;div&gt;&lt;font style=&quot;font-size: 11px;&quot;&gt;ESTABLISHED&lt;/font&gt;&lt;/div&gt;" style="whiteSpace=wrap;html=1;rounded=1;" parent="1" vertex="1">
          <mxGeometry x="1000" y="270" width="120" height="60" as="geometry" />
        </mxCell>
        <mxCell id="IL9H_qzRFQKTHQHTOQit-10" style="edgeStyle=orthogonalEdgeStyle;rounded=0;orthogonalLoop=1;jettySize=auto;html=1;entryX=1;entryY=0.5;entryDx=0;entryDy=0;fillColor=#1ba1e2;strokeColor=#006EAF;strokeWidth=2;" parent="1" source="IL9H_qzRFQKTHQHTOQit-2" target="YjNhqu2CfmliH0PkFurq-8" edge="1">
          <mxGeometry relative="1" as="geometry">
            <Array as="points">
              <mxPoint x="840" y="520" />
              <mxPoint x="840" y="434" />
            </Array>
          </mxGeometry>
        </mxCell>
        <mxCell id="IL9H_qzRFQKTHQHTOQit-11" value="[joinRequestAccepted]" style="edgeLabel;html=1;align=center;verticalAlign=middle;resizable=0;points=[];" parent="IL9H_qzRFQKTHQHTOQit-10" vertex="1" connectable="0">
          <mxGeometry x="0.0839" y="4" relative="1" as="geometry">
            <mxPoint x="75" y="-14" as="offset" />
          </mxGeometry>
        </mxCell>
        <mxCell id="IL9H_qzRFQKTHQHTOQit-2" value="&lt;span style=&quot;font-size: 11px;&quot;&gt;WAITING_TO_JOIN&lt;/span&gt;" style="whiteSpace=wrap;html=1;rounded=1;" parent="1" vertex="1">
          <mxGeometry x="1000" y="490" width="120" height="60" as="geometry" />
        </mxCell>
        <mxCell id="IL9H_qzRFQKTHQHTOQit-8" style="edgeStyle=orthogonalEdgeStyle;rounded=0;orthogonalLoop=1;jettySize=auto;html=1;entryX=0.833;entryY=0.983;entryDx=0;entryDy=0;entryPerimeter=0;fillColor=#1ba1e2;strokeColor=#006EAF;strokeWidth=2;" parent="1" source="IL9H_qzRFQKTHQHTOQit-1" target="YjNhqu2CfmliH0PkFurq-1" edge="1">
          <mxGeometry relative="1" as="geometry">
            <Array as="points">
              <mxPoint x="1040" y="240" />
              <mxPoint x="140" y="240" />
            </Array>
          </mxGeometry>
        </mxCell>
        <mxCell id="IL9H_qzRFQKTHQHTOQit-9" value="[preconditionsNotMet]" style="edgeLabel;html=1;align=center;verticalAlign=middle;resizable=0;points=[];" parent="IL9H_qzRFQKTHQHTOQit-8" vertex="1" connectable="0">
          <mxGeometry x="-0.6866" relative="1" as="geometry">
            <mxPoint y="-10" as="offset" />
          </mxGeometry>
        </mxCell>
        <mxCell id="IL9H_qzRFQKTHQHTOQit-13" style="edgeStyle=orthogonalEdgeStyle;rounded=0;orthogonalLoop=1;jettySize=auto;html=1;exitX=0.25;exitY=0;exitDx=0;exitDy=0;entryX=0.833;entryY=1.05;entryDx=0;entryDy=0;entryPerimeter=0;fillColor=#1ba1e2;strokeColor=#006EAF;strokeWidth=2;" parent="1" source="IL9H_qzRFQKTHQHTOQit-2" target="YjNhqu2CfmliH0PkFurq-1" edge="1">
          <mxGeometry relative="1" as="geometry">
            <Array as="points">
              <mxPoint x="1030" y="410" />
              <mxPoint x="900" y="410" />
              <mxPoint x="900" y="290" />
              <mxPoint x="140" y="290" />
            </Array>
          </mxGeometry>
        </mxCell>
        <mxCell id="IL9H_qzRFQKTHQHTOQit-15" value="[joinRequestDeclined" style="edgeLabel;html=1;align=center;verticalAlign=middle;resizable=0;points=[];" parent="IL9H_qzRFQKTHQHTOQit-13" vertex="1" connectable="0">
          <mxGeometry x="-0.5959" y="2" relative="1" as="geometry">
            <mxPoint x="72" y="34" as="offset" />
          </mxGeometry>
        </mxCell>
      </root>
    </mxGraphModel>
  </diagram>
</mxfile>
